<svg id="visual" viewBox="0 0 900 600" width="900" height="600" xmlns="http://www.w3.org/2000/svg" xmlns:xlink="http://www.w3.org/1999/xlink" version="1.1"><path d="M0 85L82 85L82 49L164 49L164 97L245 97L245 55L327 55L327 49L409 49L409 31L491 31L491 61L573 61L573 73L655 73L655 97L736 97L736 49L818 49L818 49L900 49L900 37L900 0L900 0L818 0L818 0L736 0L736 0L655 0L655 0L573 0L573 0L491 0L491 0L409 0L409 0L327 0L327 0L245 0L245 0L164 0L164 0L82 0L82 0L0 0Z" fill="#393e46"></path><path d="M0 259L82 259L82 157L164 157L164 325L245 325L245 211L327 211L327 163L409 163L409 163L491 163L491 211L573 211L573 199L655 199L655 277L736 277L736 193L818 193L818 265L900 265L900 241L900 35L900 47L818 47L818 47L736 47L736 95L655 95L655 71L573 71L573 59L491 59L491 29L409 29L409 47L327 47L327 53L245 53L245 95L164 95L164 47L82 47L82 83L0 83Z" fill="#343942"></path><path d="M0 313L82 313L82 241L164 241L164 373L245 373L245 283L327 283L327 247L409 247L409 223L491 223L491 241L573 241L573 265L655 265L655 307L736 307L736 223L818 223L818 349L900 349L900 301L900 239L900 263L818 263L818 191L736 191L736 275L655 275L655 197L573 197L573 209L491 209L491 161L409 161L409 161L327 161L327 209L245 209L245 323L164 323L164 155L82 155L82 257L0 257Z" fill="#2f343d"></path><path d="M0 403L82 403L82 373L164 373L164 445L245 445L245 427L327 427L327 373L409 373L409 343L491 343L491 355L573 355L573 391L655 391L655 433L736 433L736 307L818 307L818 421L900 421L900 433L900 299L900 347L818 347L818 221L736 221L736 305L655 305L655 263L573 263L573 239L491 239L491 221L409 221L409 245L327 245L327 281L245 281L245 371L164 371L164 239L82 239L82 311L0 311Z" fill="#2b3039"></path><path d="M0 511L82 511L82 523L164 523L164 535L245 535L245 547L327 547L327 523L409 523L409 523L491 523L491 493L573 493L573 559L655 559L655 511L736 511L736 511L818 511L818 517L900 517L900 505L900 431L900 419L818 419L818 305L736 305L736 431L655 431L655 389L573 389L573 353L491 353L491 341L409 341L409 371L327 371L327 425L245 425L245 443L164 443L164 371L82 371L82 401L0 401Z" fill="#262b35"></path><path d="M0 601L82 601L82 601L164 601L164 601L245 601L245 601L327 601L327 601L409 601L409 601L491 601L491 601L573 601L573 601L655 601L655 601L736 601L736 601L818 601L818 601L900 601L900 601L900 503L900 515L818 515L818 509L736 509L736 509L655 509L655 557L573 557L573 491L491 491L491 521L409 521L409 521L327 521L327 545L245 545L245 533L164 533L164 521L82 521L82 509L0 509Z" fill="#212731"></path></svg>